<mxfile host="app.diagrams.net" modified="2022-05-15T20:38:38.571Z" agent="5.0 (Windows)" etag="zP5r4bGFOz53wEs6hhcV" version="18.0.4" type="github">
  <diagram id="C5RBs43oDa-KdzZeNtuy" name="Class Diagram">
    <mxGraphModel dx="903" dy="627" grid="0" gridSize="10" guides="1" tooltips="1" connect="1" arrows="1" fold="1" page="1" pageScale="1" pageWidth="827" pageHeight="1169" math="0" shadow="0">
      <root>
        <mxCell id="WIyWlLk6GJQsqaUBKTNV-0" />
        <mxCell id="WIyWlLk6GJQsqaUBKTNV-1" parent="WIyWlLk6GJQsqaUBKTNV-0" />
        <mxCell id="coV18CZ96dicYKJdgp45-4" value="User" style="swimlane;fontStyle=1;align=center;verticalAlign=top;childLayout=stackLayout;horizontal=1;startSize=26;horizontalStack=0;resizeParent=1;resizeParentMax=0;resizeLast=0;collapsible=1;marginBottom=0;strokeWidth=1;spacingTop=0;fontSize=12;strokeColor=#6c8ebf;fillColor=#dae8fc;" parent="WIyWlLk6GJQsqaUBKTNV-1" vertex="1">
          <mxGeometry x="621" y="40" width="160" height="260" as="geometry" />
        </mxCell>
        <mxCell id="coV18CZ96dicYKJdgp45-5" value="- userID : String&#xa;- firstName : String&#xa;- lastName : String&#xa;- age : int&#xa;- sex : String&#xa;- email : String&#xa;- address : String&#xa;- role : String&#xa;- phoneNumber : String&#xa;- username : String&#xa;- password : String" style="text;strokeColor=#6C8EBF;fillColor=none;align=left;verticalAlign=top;spacingLeft=4;spacingRight=4;overflow=hidden;rotatable=0;points=[[0,0.5],[1,0.5]];portConstraint=eastwest;strokeWidth=1;spacingTop=0;fontSize=12;" parent="coV18CZ96dicYKJdgp45-4" vertex="1">
          <mxGeometry y="26" width="160" height="174" as="geometry" />
        </mxCell>
        <mxCell id="coV18CZ96dicYKJdgp45-7" value="+ login() : void&#xa;+ getter() : getType&#xa;+ setter() : void" style="text;strokeColor=#6C8EBF;fillColor=none;align=left;verticalAlign=top;spacingLeft=4;spacingRight=4;overflow=hidden;rotatable=0;points=[[0,0.5],[1,0.5]];portConstraint=eastwest;strokeWidth=1;spacingTop=0;fontSize=12;" parent="coV18CZ96dicYKJdgp45-4" vertex="1">
          <mxGeometry y="200" width="160" height="60" as="geometry" />
        </mxCell>
        <mxCell id="ezx2IVxBo0MTf1jBkaTU-21" value="Result" style="swimlane;fontStyle=1;align=center;verticalAlign=top;childLayout=stackLayout;horizontal=1;startSize=26;horizontalStack=0;resizeParent=1;resizeParentMax=0;resizeLast=0;collapsible=1;marginBottom=0;strokeWidth=1;spacingTop=0;fontSize=12;strokeColor=#6c8ebf;fillColor=#dae8fc;" parent="WIyWlLk6GJQsqaUBKTNV-1" vertex="1">
          <mxGeometry x="40" y="840" width="134" height="174" as="geometry" />
        </mxCell>
        <mxCell id="ezx2IVxBo0MTf1jBkaTU-22" value="- MRN : String&#xa;- clientName : String&#xa;- finding : String&#xa;- senderName : String&#xa;- date : Date&#xa;- signature: String&#xa;" style="text;strokeColor=#6C8EBF;fillColor=none;align=left;verticalAlign=top;spacingLeft=4;spacingRight=4;overflow=hidden;rotatable=0;points=[[0,0.5],[1,0.5]];portConstraint=eastwest;strokeWidth=1;spacingTop=0;fontSize=12;" parent="ezx2IVxBo0MTf1jBkaTU-21" vertex="1">
          <mxGeometry y="26" width="134" height="101" as="geometry" />
        </mxCell>
        <mxCell id="ezx2IVxBo0MTf1jBkaTU-23" value="+ getter() : String&#xa;+ setter() : void" style="text;strokeColor=#6C8EBF;fillColor=none;align=left;verticalAlign=top;spacingLeft=4;spacingRight=4;overflow=hidden;rotatable=0;points=[[0,0.5],[1,0.5]];portConstraint=eastwest;strokeWidth=1;spacingTop=0;fontSize=12;" parent="ezx2IVxBo0MTf1jBkaTU-21" vertex="1">
          <mxGeometry y="127" width="134" height="47" as="geometry" />
        </mxCell>
        <mxCell id="ezx2IVxBo0MTf1jBkaTU-25" value="Request" style="swimlane;fontStyle=1;align=center;verticalAlign=top;childLayout=stackLayout;horizontal=1;startSize=26;horizontalStack=0;resizeParent=1;resizeParentMax=0;resizeLast=0;collapsible=1;marginBottom=0;strokeWidth=1;spacingTop=0;fontSize=12;strokeColor=#6c8ebf;fillColor=#dae8fc;" parent="WIyWlLk6GJQsqaUBKTNV-1" vertex="1">
          <mxGeometry x="201" y="840" width="133" height="174" as="geometry" />
        </mxCell>
        <mxCell id="ezx2IVxBo0MTf1jBkaTU-26" value="- MRN : String&#xa;- clientName : String&#xa;- requestType : String&#xa;- senderName : String&#xa;- date : Date&#xa;- signature: String&#xa;" style="text;strokeColor=#6C8EBF;fillColor=none;align=left;verticalAlign=top;spacingLeft=4;spacingRight=4;overflow=hidden;rotatable=0;points=[[0,0.5],[1,0.5]];portConstraint=eastwest;strokeWidth=1;spacingTop=0;fontSize=12;" parent="ezx2IVxBo0MTf1jBkaTU-25" vertex="1">
          <mxGeometry y="26" width="133" height="101" as="geometry" />
        </mxCell>
        <mxCell id="ezx2IVxBo0MTf1jBkaTU-27" value="+ getter() : String&#xa;+ setter() : void" style="text;strokeColor=#6C8EBF;fillColor=none;align=left;verticalAlign=top;spacingLeft=4;spacingRight=4;overflow=hidden;rotatable=0;points=[[0,0.5],[1,0.5]];portConstraint=eastwest;strokeWidth=1;spacingTop=0;fontSize=12;" parent="ezx2IVxBo0MTf1jBkaTU-25" vertex="1">
          <mxGeometry y="127" width="133" height="47" as="geometry" />
        </mxCell>
        <mxCell id="ezx2IVxBo0MTf1jBkaTU-33" value="Prescription" style="swimlane;fontStyle=1;align=center;verticalAlign=top;childLayout=stackLayout;horizontal=1;startSize=26;horizontalStack=0;resizeParent=1;resizeParentMax=0;resizeLast=0;collapsible=1;marginBottom=0;strokeWidth=1;spacingTop=0;fontSize=12;strokeColor=#6c8ebf;fillColor=#dae8fc;" parent="WIyWlLk6GJQsqaUBKTNV-1" vertex="1">
          <mxGeometry x="351" y="840" width="144" height="183" as="geometry" />
        </mxCell>
        <mxCell id="ezx2IVxBo0MTf1jBkaTU-34" value="- MRN : String&#xa;- clientName : String&#xa;- drugName : String&#xa;- method : String&#xa;- dose : Double&#xa;- presciberName : String&#xa;- date : Date&#xa;" style="text;strokeColor=#6C8EBF;fillColor=none;align=left;verticalAlign=top;spacingLeft=4;spacingRight=4;overflow=hidden;rotatable=0;points=[[0,0.5],[1,0.5]];portConstraint=eastwest;strokeWidth=1;spacingTop=0;fontSize=12;" parent="ezx2IVxBo0MTf1jBkaTU-33" vertex="1">
          <mxGeometry y="26" width="144" height="110" as="geometry" />
        </mxCell>
        <mxCell id="ezx2IVxBo0MTf1jBkaTU-35" value="+ getter() : String&#xa;+ setter() : void" style="text;strokeColor=#6C8EBF;fillColor=none;align=left;verticalAlign=top;spacingLeft=4;spacingRight=4;overflow=hidden;rotatable=0;points=[[0,0.5],[1,0.5]];portConstraint=eastwest;strokeWidth=1;spacingTop=0;fontSize=12;" parent="ezx2IVxBo0MTf1jBkaTU-33" vertex="1">
          <mxGeometry y="136" width="144" height="47" as="geometry" />
        </mxCell>
        <mxCell id="ezx2IVxBo0MTf1jBkaTU-37" value="Report" style="swimlane;fontStyle=1;align=center;verticalAlign=top;childLayout=stackLayout;horizontal=1;startSize=26;horizontalStack=0;resizeParent=1;resizeParentMax=0;resizeLast=0;collapsible=1;marginBottom=0;strokeWidth=1;spacingTop=0;fontSize=12;strokeColor=#6c8ebf;fillColor=#dae8fc;" parent="WIyWlLk6GJQsqaUBKTNV-1" vertex="1">
          <mxGeometry x="680" y="840" width="137" height="180" as="geometry" />
        </mxCell>
        <mxCell id="ezx2IVxBo0MTf1jBkaTU-38" value="- MRN : String&#xa;- reportID : String- title : String&#xa;- senderName : String&#xa;- date : Date" style="text;strokeColor=#6C8EBF;fillColor=none;align=left;verticalAlign=top;spacingLeft=4;spacingRight=4;overflow=hidden;rotatable=0;points=[[0,0.5],[1,0.5]];portConstraint=eastwest;strokeWidth=1;spacingTop=0;fontSize=12;" parent="ezx2IVxBo0MTf1jBkaTU-37" vertex="1">
          <mxGeometry y="26" width="137" height="71" as="geometry" />
        </mxCell>
        <mxCell id="ezx2IVxBo0MTf1jBkaTU-39" value="+ getter() : String&#xa;+ setter() : void" style="text;strokeColor=#6C8EBF;fillColor=none;align=left;verticalAlign=top;spacingLeft=4;spacingRight=4;overflow=hidden;rotatable=0;points=[[0,0.5],[1,0.5]];portConstraint=eastwest;strokeWidth=1;spacingTop=0;fontSize=12;" parent="ezx2IVxBo0MTf1jBkaTU-37" vertex="1">
          <mxGeometry y="97" width="137" height="83" as="geometry" />
        </mxCell>
        <mxCell id="coV18CZ96dicYKJdgp45-50" value="Client" style="swimlane;fontStyle=1;align=center;verticalAlign=top;childLayout=stackLayout;horizontal=1;startSize=26;horizontalStack=0;resizeParent=1;resizeParentMax=0;resizeLast=0;collapsible=1;marginBottom=0;strokeWidth=1;spacingTop=0;fontSize=12;strokeColor=#6c8ebf;fillColor=#dae8fc;" parent="WIyWlLk6GJQsqaUBKTNV-1" vertex="1">
          <mxGeometry x="310" y="261" width="140" height="260" as="geometry" />
        </mxCell>
        <mxCell id="coV18CZ96dicYKJdgp45-51" value="- MRN : String&#xa;- date : Date&#xa;- ANCReg.No. : String&#xa;- facilityName : String&#xa;- houseNo. : String&#xa;- martialStatus : String&#xa;- gravidity : int&#xa;- parity : int&#xa;- No.OfChildren : int&#xa;- LMP : Date&#xa;- EDD : Date&#xa;- gestAge : Date&#xa;" style="text;strokeColor=#6C8EBF;fillColor=none;align=left;verticalAlign=top;spacingLeft=4;spacingRight=4;overflow=hidden;rotatable=0;points=[[0,0.5],[1,0.5]];portConstraint=eastwest;strokeWidth=1;spacingTop=0;fontSize=12;" parent="coV18CZ96dicYKJdgp45-50" vertex="1">
          <mxGeometry y="26" width="140" height="178" as="geometry" />
        </mxCell>
        <mxCell id="coV18CZ96dicYKJdgp45-52" value="+ login() : void&#xa;+ view() : void&#xa;+ sendFeedback() : void" style="text;strokeColor=#6C8EBF;fillColor=none;align=left;verticalAlign=top;spacingLeft=4;spacingRight=4;overflow=hidden;rotatable=0;points=[[0,0.5],[1,0.5]];portConstraint=eastwest;strokeWidth=1;spacingTop=0;fontSize=12;" parent="coV18CZ96dicYKJdgp45-50" vertex="1">
          <mxGeometry y="204" width="140" height="56" as="geometry" />
        </mxCell>
        <mxCell id="coV18CZ96dicYKJdgp45-55" value="ANCVisits" style="swimlane;fontStyle=1;align=center;verticalAlign=top;childLayout=stackLayout;horizontal=1;startSize=26;horizontalStack=0;resizeParent=1;resizeParentMax=0;resizeLast=0;collapsible=1;marginBottom=0;strokeWidth=1;spacingTop=0;fontSize=12;strokeColor=#6c8ebf;fillColor=#dae8fc;" parent="WIyWlLk6GJQsqaUBKTNV-1" vertex="1">
          <mxGeometry x="280" y="39" width="140" height="170" as="geometry" />
        </mxCell>
        <mxCell id="coV18CZ96dicYKJdgp45-56" value="- MRN : String&#xa;- date : Date&#xa;- anemia : String&#xa;- fetal-heartbeat : String&#xa;- presentation : String&#xa;- urine-test : String&#xa;- hemoglobin : String&#xa;- blood-group : String&#xa;- tuberculosis : String" style="text;strokeColor=#6C8EBF;fillColor=none;align=left;verticalAlign=top;spacingLeft=4;spacingRight=4;overflow=hidden;rotatable=0;points=[[0,0.5],[1,0.5]];portConstraint=eastwest;strokeWidth=1;spacingTop=0;fontSize=12;" parent="coV18CZ96dicYKJdgp45-55" vertex="1">
          <mxGeometry y="26" width="140" height="144" as="geometry" />
        </mxCell>
        <mxCell id="coV18CZ96dicYKJdgp45-61" value="Delivery" style="swimlane;fontStyle=1;align=center;verticalAlign=top;childLayout=stackLayout;horizontal=1;startSize=26;horizontalStack=0;resizeParent=1;resizeParentMax=0;resizeLast=0;collapsible=1;marginBottom=0;strokeWidth=1;spacingTop=0;fontSize=12;strokeColor=#6c8ebf;fillColor=#dae8fc;" parent="WIyWlLk6GJQsqaUBKTNV-1" vertex="1">
          <mxGeometry x="41.99999999999997" y="420" width="141" height="170" as="geometry" />
        </mxCell>
        <mxCell id="coV18CZ96dicYKJdgp45-62" value="- MRN : String&#xa;- date : Date&#xa;- anemia : String&#xa;- fetal-heartbeat : String&#xa;- presentation : String&#xa;- urine-test : String&#xa;- hemoglobin : String&#xa;- blood-group : String&#xa;- tuberculosis : String&#xa;&#xa;" style="text;strokeColor=#6C8EBF;fillColor=none;align=left;verticalAlign=top;spacingLeft=4;spacingRight=4;overflow=hidden;rotatable=0;points=[[0,0.5],[1,0.5]];portConstraint=eastwest;strokeWidth=1;spacingTop=0;fontSize=12;" parent="coV18CZ96dicYKJdgp45-61" vertex="1">
          <mxGeometry y="26" width="141" height="144" as="geometry" />
        </mxCell>
        <mxCell id="coV18CZ96dicYKJdgp45-65" value="PNCVisits" style="swimlane;fontStyle=1;align=center;verticalAlign=top;childLayout=stackLayout;horizontal=1;startSize=26;horizontalStack=0;resizeParent=1;resizeParentMax=0;resizeLast=0;collapsible=1;marginBottom=0;strokeWidth=1;spacingTop=0;fontSize=12;strokeColor=#6c8ebf;fillColor=#dae8fc;" parent="WIyWlLk6GJQsqaUBKTNV-1" vertex="1">
          <mxGeometry x="39.99999999999997" y="206" width="163" height="194" as="geometry" />
        </mxCell>
        <mxCell id="coV18CZ96dicYKJdgp45-66" value="- MRN : String&#xa;- date : Date&#xa;- temperature: String&#xa;- dribbling : String&#xa;- breast: String&#xa;- anemia : String&#xa;- vitamin: String&#xa;- HIVtested: Boolean&#xa;- immunization : Boolean&#xa;- contraceptiveInfo : Boolean&#xa;- tetanusVaccination : Bool&#xa;" style="text;strokeColor=#6C8EBF;fillColor=none;align=left;verticalAlign=top;spacingLeft=4;spacingRight=4;overflow=hidden;rotatable=0;points=[[0,0.5],[1,0.5]];portConstraint=eastwest;strokeWidth=1;spacingTop=0;fontSize=12;" parent="coV18CZ96dicYKJdgp45-65" vertex="1">
          <mxGeometry y="26" width="163" height="168" as="geometry" />
        </mxCell>
        <mxCell id="coV18CZ96dicYKJdgp45-77" value="NewBorn" style="swimlane;fontStyle=1;align=center;verticalAlign=top;childLayout=stackLayout;horizontal=1;startSize=26;horizontalStack=0;resizeParent=1;resizeParentMax=0;resizeLast=0;collapsible=1;marginBottom=0;strokeWidth=1;spacingTop=0;fontSize=12;strokeColor=#6c8ebf;fillColor=#dae8fc;" parent="WIyWlLk6GJQsqaUBKTNV-1" vertex="1">
          <mxGeometry x="39.999999999999986" y="40" width="143" height="149" as="geometry" />
        </mxCell>
        <mxCell id="coV18CZ96dicYKJdgp45-78" value="- MRN : String&#xa;- ID : String&#xa;- time : Date- sex : String&#xa;- birthWeight : Double&#xa;- birrthLength : Double&#xa;- sephallic : Boolean&#xa;- BCGVacine :Boolean&#xa;- polioVacine :Boolean" style="text;strokeColor=#6C8EBF;fillColor=none;align=left;verticalAlign=top;spacingLeft=4;spacingRight=4;overflow=hidden;rotatable=0;points=[[0,0.5],[1,0.5]];portConstraint=eastwest;strokeWidth=1;spacingTop=0;fontSize=12;" parent="coV18CZ96dicYKJdgp45-77" vertex="1">
          <mxGeometry y="26" width="143" height="123" as="geometry" />
        </mxCell>
        <mxCell id="coV18CZ96dicYKJdgp45-9" value="Midwife" style="swimlane;fontStyle=1;align=center;verticalAlign=top;childLayout=stackLayout;horizontal=1;startSize=26;horizontalStack=0;resizeParent=1;resizeParentMax=0;resizeLast=0;collapsible=1;marginBottom=0;strokeWidth=1;spacingTop=0;fontSize=12;strokeColor=#6c8ebf;fillColor=#dae8fc;" parent="WIyWlLk6GJQsqaUBKTNV-1" vertex="1">
          <mxGeometry x="500" y="413" width="164.57142857142856" height="114" as="geometry" />
        </mxCell>
        <mxCell id="coV18CZ96dicYKJdgp45-11" value="" style="line;strokeWidth=1;fillColor=none;align=left;verticalAlign=middle;spacingTop=0;spacingLeft=3;spacingRight=3;rotatable=0;labelPosition=right;points=[];portConstraint=eastwest;fontSize=12;strokeColor=#6C8EBF;" parent="coV18CZ96dicYKJdgp45-9" vertex="1">
          <mxGeometry y="26" width="164.57142857142856" height="8" as="geometry" />
        </mxCell>
        <mxCell id="coV18CZ96dicYKJdgp45-12" value="+ addClientDetail() : void&#xa;+ updateClientDetail() : void&#xa;+ deleteClientDetail() : void&#xa;+ view() : void&#xa;+ search() : void&#xa;" style="text;strokeColor=#6C8EBF;fillColor=none;align=left;verticalAlign=top;spacingLeft=4;spacingRight=4;overflow=hidden;rotatable=0;points=[[0,0.5],[1,0.5]];portConstraint=eastwest;strokeWidth=1;spacingTop=0;fontSize=12;" parent="coV18CZ96dicYKJdgp45-9" vertex="1">
          <mxGeometry y="34" width="164.57142857142856" height="80" as="geometry" />
        </mxCell>
        <mxCell id="coV18CZ96dicYKJdgp45-16" value="Doctor" style="swimlane;fontStyle=1;align=center;verticalAlign=top;childLayout=stackLayout;horizontal=1;startSize=26;horizontalStack=0;resizeParent=1;resizeParentMax=0;resizeLast=0;collapsible=1;marginBottom=0;strokeWidth=1;spacingTop=0;fontSize=12;strokeColor=#6c8ebf;fillColor=#dae8fc;" parent="WIyWlLk6GJQsqaUBKTNV-1" vertex="1">
          <mxGeometry x="682" y="413" width="134.86" height="114" as="geometry" />
        </mxCell>
        <mxCell id="coV18CZ96dicYKJdgp45-17" value="" style="line;strokeWidth=1;fillColor=none;align=left;verticalAlign=middle;spacingTop=0;spacingLeft=3;spacingRight=3;rotatable=0;labelPosition=right;points=[];portConstraint=eastwest;fontSize=12;strokeColor=#6C8EBF;" parent="coV18CZ96dicYKJdgp45-16" vertex="1">
          <mxGeometry y="26" width="134.86" height="8" as="geometry" />
        </mxCell>
        <mxCell id="coV18CZ96dicYKJdgp45-18" value="+ sendRequest() : void&#xa;+ sendRefer() : void&#xa;+ updateData() : void&#xa;+ view() : void&#xa;+ search() : void&#xa;" style="text;strokeColor=#6C8EBF;fillColor=none;align=left;verticalAlign=top;spacingLeft=4;spacingRight=4;overflow=hidden;rotatable=0;points=[[0,0.5],[1,0.5]];portConstraint=eastwest;strokeWidth=1;spacingTop=0;fontSize=12;" parent="coV18CZ96dicYKJdgp45-16" vertex="1">
          <mxGeometry y="34" width="134.86" height="80" as="geometry" />
        </mxCell>
        <mxCell id="Jc25OmqgVMnvs9-wTiUW-7" value="" style="endArrow=none;html=1;rounded=0;strokeWidth=1;entryX=0.5;entryY=1;entryDx=0;entryDy=0;exitX=0.57;exitY=-0.013;exitDx=0;exitDy=0;exitPerimeter=0;fillColor=#dae8fc;strokeColor=#6c8ebf;" edge="1" parent="WIyWlLk6GJQsqaUBKTNV-1">
          <mxGeometry width="50" height="50" relative="1" as="geometry">
            <mxPoint x="388.79999999999995" y="257.62" as="sourcePoint" />
            <mxPoint x="389" y="209" as="targetPoint" />
          </mxGeometry>
        </mxCell>
        <mxCell id="Jc25OmqgVMnvs9-wTiUW-8" value="has" style="edgeLabel;html=1;align=center;verticalAlign=middle;resizable=0;points=[];" vertex="1" connectable="0" parent="Jc25OmqgVMnvs9-wTiUW-7">
          <mxGeometry x="0.4265" y="-2" relative="1" as="geometry">
            <mxPoint x="9" y="11" as="offset" />
          </mxGeometry>
        </mxCell>
        <mxCell id="Jc25OmqgVMnvs9-wTiUW-13" value="1" style="edgeLabel;html=1;align=center;verticalAlign=middle;resizable=0;points=[];" vertex="1" connectable="0" parent="Jc25OmqgVMnvs9-wTiUW-7">
          <mxGeometry x="-0.4229" y="-2" relative="1" as="geometry">
            <mxPoint x="4" y="10" as="offset" />
          </mxGeometry>
        </mxCell>
        <mxCell id="Jc25OmqgVMnvs9-wTiUW-14" value="&lt;font style=&quot;font-size: 11px;&quot;&gt;&lt;b&gt;1..*&lt;/b&gt;&lt;/font&gt;" style="edgeLabel;html=1;align=center;verticalAlign=middle;resizable=0;points=[];" vertex="1" connectable="0" parent="Jc25OmqgVMnvs9-wTiUW-7">
          <mxGeometry x="0.5838" y="-3" relative="1" as="geometry">
            <mxPoint x="9" y="-1" as="offset" />
          </mxGeometry>
        </mxCell>
        <mxCell id="Jc25OmqgVMnvs9-wTiUW-9" value="" style="endArrow=none;html=1;rounded=0;strokeWidth=1;entryX=1;entryY=0.78;entryDx=0;entryDy=0;exitX=0.25;exitY=0;exitDx=0;exitDy=0;entryPerimeter=0;fillColor=#dae8fc;strokeColor=#6c8ebf;" edge="1" parent="WIyWlLk6GJQsqaUBKTNV-1" source="coV18CZ96dicYKJdgp45-50" target="coV18CZ96dicYKJdgp45-78">
          <mxGeometry width="50" height="50" relative="1" as="geometry">
            <mxPoint x="439.79999999999995" y="256.62" as="sourcePoint" />
            <mxPoint x="440" y="199" as="targetPoint" />
          </mxGeometry>
        </mxCell>
        <mxCell id="Jc25OmqgVMnvs9-wTiUW-10" value="has" style="edgeLabel;html=1;align=center;verticalAlign=middle;resizable=0;points=[];" vertex="1" connectable="0" parent="Jc25OmqgVMnvs9-wTiUW-9">
          <mxGeometry x="0.4265" y="-2" relative="1" as="geometry">
            <mxPoint x="18" y="-1" as="offset" />
          </mxGeometry>
        </mxCell>
        <mxCell id="Jc25OmqgVMnvs9-wTiUW-15" value="&lt;b&gt;1&lt;/b&gt;" style="edgeLabel;html=1;align=center;verticalAlign=middle;resizable=0;points=[];fontSize=11;" vertex="1" connectable="0" parent="Jc25OmqgVMnvs9-wTiUW-9">
          <mxGeometry x="-0.7448" y="-6" relative="1" as="geometry">
            <mxPoint x="18" y="8" as="offset" />
          </mxGeometry>
        </mxCell>
        <mxCell id="Jc25OmqgVMnvs9-wTiUW-18" value="&lt;b&gt;1..*&lt;/b&gt;" style="edgeLabel;html=1;align=center;verticalAlign=middle;resizable=0;points=[];fontSize=11;" vertex="1" connectable="0" parent="Jc25OmqgVMnvs9-wTiUW-9">
          <mxGeometry x="0.857" y="-8" relative="1" as="geometry">
            <mxPoint x="-4" y="-5" as="offset" />
          </mxGeometry>
        </mxCell>
        <mxCell id="Jc25OmqgVMnvs9-wTiUW-11" value="" style="endArrow=none;html=1;rounded=0;strokeWidth=1;entryX=1;entryY=0.5;entryDx=0;entryDy=0;fillColor=#dae8fc;strokeColor=#6c8ebf;" edge="1" parent="WIyWlLk6GJQsqaUBKTNV-1" target="coV18CZ96dicYKJdgp45-66">
          <mxGeometry width="50" height="50" relative="1" as="geometry">
            <mxPoint x="350" y="316" as="sourcePoint" />
            <mxPoint x="223" y="171.94000000000005" as="targetPoint" />
          </mxGeometry>
        </mxCell>
        <mxCell id="Jc25OmqgVMnvs9-wTiUW-12" value="has" style="edgeLabel;html=1;align=center;verticalAlign=middle;resizable=0;points=[];" vertex="1" connectable="0" parent="Jc25OmqgVMnvs9-wTiUW-11">
          <mxGeometry x="0.4265" y="-2" relative="1" as="geometry">
            <mxPoint x="18" y="-8" as="offset" />
          </mxGeometry>
        </mxCell>
        <mxCell id="Jc25OmqgVMnvs9-wTiUW-19" value="&lt;b&gt;1&lt;/b&gt;" style="edgeLabel;html=1;align=center;verticalAlign=middle;resizable=0;points=[];fontSize=11;" vertex="1" connectable="0" parent="Jc25OmqgVMnvs9-wTiUW-11">
          <mxGeometry x="-0.6929" y="-4" relative="1" as="geometry">
            <mxPoint x="-32" y="-5" as="offset" />
          </mxGeometry>
        </mxCell>
        <mxCell id="Jc25OmqgVMnvs9-wTiUW-20" value="&lt;b&gt;1..*&lt;/b&gt;" style="edgeLabel;html=1;align=center;verticalAlign=middle;resizable=0;points=[];fontSize=11;" vertex="1" connectable="0" parent="Jc25OmqgVMnvs9-wTiUW-11">
          <mxGeometry x="0.7768" y="-7" relative="1" as="geometry">
            <mxPoint x="-3" y="-1" as="offset" />
          </mxGeometry>
        </mxCell>
        <mxCell id="Jc25OmqgVMnvs9-wTiUW-21" value="" style="endArrow=none;html=1;rounded=0;strokeWidth=1;fillColor=#dae8fc;strokeColor=#6c8ebf;exitX=0.021;exitY=0.286;exitDx=0;exitDy=0;entryX=0.986;entryY=0.25;entryDx=0;entryDy=0;entryPerimeter=0;exitPerimeter=0;" edge="1" parent="WIyWlLk6GJQsqaUBKTNV-1" source="coV18CZ96dicYKJdgp45-52" target="coV18CZ96dicYKJdgp45-62">
          <mxGeometry width="50" height="50" relative="1" as="geometry">
            <mxPoint x="340" y="485" as="sourcePoint" />
            <mxPoint x="210" y="482" as="targetPoint" />
          </mxGeometry>
        </mxCell>
        <mxCell id="Jc25OmqgVMnvs9-wTiUW-22" value="has" style="edgeLabel;html=1;align=center;verticalAlign=middle;resizable=0;points=[];" vertex="1" connectable="0" parent="Jc25OmqgVMnvs9-wTiUW-21">
          <mxGeometry x="0.4265" y="-2" relative="1" as="geometry">
            <mxPoint x="18" y="-8" as="offset" />
          </mxGeometry>
        </mxCell>
        <mxCell id="Jc25OmqgVMnvs9-wTiUW-23" value="&lt;b&gt;1&lt;/b&gt;" style="edgeLabel;html=1;align=center;verticalAlign=middle;resizable=0;points=[];fontSize=11;" vertex="1" connectable="0" parent="Jc25OmqgVMnvs9-wTiUW-21">
          <mxGeometry x="-0.6929" y="-4" relative="1" as="geometry">
            <mxPoint x="8" y="-5" as="offset" />
          </mxGeometry>
        </mxCell>
        <mxCell id="Jc25OmqgVMnvs9-wTiUW-24" value="&lt;b&gt;1..*&lt;/b&gt;" style="edgeLabel;html=1;align=center;verticalAlign=middle;resizable=0;points=[];fontSize=11;" vertex="1" connectable="0" parent="Jc25OmqgVMnvs9-wTiUW-21">
          <mxGeometry x="0.7768" y="-7" relative="1" as="geometry">
            <mxPoint x="-3" y="-1" as="offset" />
          </mxGeometry>
        </mxCell>
        <mxCell id="Jc25OmqgVMnvs9-wTiUW-30" value="" style="endArrow=none;html=1;rounded=0;fontSize=11;strokeWidth=1;entryX=1;entryY=0.5;entryDx=0;entryDy=0;exitX=0;exitY=0.5;exitDx=0;exitDy=0;startArrow=block;startFill=1;fillColor=#dae8fc;strokeColor=#6c8ebf;" edge="1" parent="WIyWlLk6GJQsqaUBKTNV-1" source="coV18CZ96dicYKJdgp45-7" target="coV18CZ96dicYKJdgp45-51">
          <mxGeometry width="50" height="50" relative="1" as="geometry">
            <mxPoint x="660" y="420" as="sourcePoint" />
            <mxPoint x="710" y="370" as="targetPoint" />
            <Array as="points">
              <mxPoint x="550" y="270" />
              <mxPoint x="550" y="376" />
            </Array>
          </mxGeometry>
        </mxCell>
        <mxCell id="Jc25OmqgVMnvs9-wTiUW-41" style="edgeStyle=none;rounded=0;orthogonalLoop=1;jettySize=auto;html=1;fontSize=11;startArrow=none;startFill=0;endArrow=block;endFill=0;strokeWidth=1;fillColor=#dae8fc;strokeColor=#6c8ebf;" edge="1" parent="WIyWlLk6GJQsqaUBKTNV-1">
          <mxGeometry relative="1" as="geometry">
            <mxPoint x="673" y="359" as="targetPoint" />
            <mxPoint x="673" y="600" as="sourcePoint" />
          </mxGeometry>
        </mxCell>
        <mxCell id="Jc25OmqgVMnvs9-wTiUW-42" value="" style="endArrow=none;html=1;rounded=0;fontSize=11;strokeWidth=1;fillColor=#dae8fc;strokeColor=#6c8ebf;" edge="1" parent="WIyWlLk6GJQsqaUBKTNV-1">
          <mxGeometry width="50" height="50" relative="1" as="geometry">
            <mxPoint x="750" y="360" as="sourcePoint" />
            <mxPoint x="590" y="360" as="targetPoint" />
          </mxGeometry>
        </mxCell>
        <mxCell id="Jc25OmqgVMnvs9-wTiUW-43" style="edgeStyle=none;rounded=0;orthogonalLoop=1;jettySize=auto;html=1;fontSize=11;startArrow=none;startFill=0;endArrow=block;endFill=0;strokeWidth=1;fillColor=#dae8fc;strokeColor=#6c8ebf;entryX=0.513;entryY=1.083;entryDx=0;entryDy=0;entryPerimeter=0;" edge="1" parent="WIyWlLk6GJQsqaUBKTNV-1">
          <mxGeometry relative="1" as="geometry">
            <mxPoint x="667.0799999999999" y="301.98" as="targetPoint" />
            <mxPoint x="667" y="357" as="sourcePoint" />
          </mxGeometry>
        </mxCell>
        <mxCell id="Jc25OmqgVMnvs9-wTiUW-44" style="edgeStyle=none;rounded=0;orthogonalLoop=1;jettySize=auto;html=1;fontSize=11;startArrow=none;startFill=0;endArrow=block;endFill=0;strokeWidth=1;fillColor=#dae8fc;strokeColor=#6c8ebf;entryX=0.513;entryY=1.083;entryDx=0;entryDy=0;entryPerimeter=0;" edge="1" parent="WIyWlLk6GJQsqaUBKTNV-1">
          <mxGeometry relative="1" as="geometry">
            <mxPoint x="591.0799999999999" y="357.98" as="targetPoint" />
            <mxPoint x="591" y="413" as="sourcePoint" />
          </mxGeometry>
        </mxCell>
        <mxCell id="Jc25OmqgVMnvs9-wTiUW-45" style="edgeStyle=none;rounded=0;orthogonalLoop=1;jettySize=auto;html=1;fontSize=11;startArrow=none;startFill=0;endArrow=block;endFill=0;strokeWidth=1;fillColor=#dae8fc;strokeColor=#6c8ebf;entryX=0.513;entryY=1.083;entryDx=0;entryDy=0;entryPerimeter=0;" edge="1" parent="WIyWlLk6GJQsqaUBKTNV-1">
          <mxGeometry relative="1" as="geometry">
            <mxPoint x="751.0799999999999" y="357.98" as="targetPoint" />
            <mxPoint x="751" y="413" as="sourcePoint" />
          </mxGeometry>
        </mxCell>
        <mxCell id="Jc25OmqgVMnvs9-wTiUW-46" value="Appointment" style="swimlane;fontStyle=1;align=center;verticalAlign=top;childLayout=stackLayout;horizontal=1;startSize=26;horizontalStack=0;resizeParent=1;resizeParentMax=0;resizeLast=0;collapsible=1;marginBottom=0;strokeWidth=1;spacingTop=0;fontSize=12;strokeColor=#6c8ebf;fillColor=#dae8fc;" vertex="1" parent="WIyWlLk6GJQsqaUBKTNV-1">
          <mxGeometry x="450" y="40" width="137" height="180" as="geometry" />
        </mxCell>
        <mxCell id="Jc25OmqgVMnvs9-wTiUW-47" value="- MRN : String&#xa;- reportID : String&#xa;- date : Date" style="text;strokeColor=#6C8EBF;fillColor=none;align=left;verticalAlign=top;spacingLeft=4;spacingRight=4;overflow=hidden;rotatable=0;points=[[0,0.5],[1,0.5]];portConstraint=eastwest;strokeWidth=1;spacingTop=0;fontSize=12;" vertex="1" parent="Jc25OmqgVMnvs9-wTiUW-46">
          <mxGeometry y="26" width="137" height="71" as="geometry" />
        </mxCell>
        <mxCell id="Jc25OmqgVMnvs9-wTiUW-48" value="+ getter() : String&#xa;+ setter() : void" style="text;strokeColor=#6C8EBF;fillColor=none;align=left;verticalAlign=top;spacingLeft=4;spacingRight=4;overflow=hidden;rotatable=0;points=[[0,0.5],[1,0.5]];portConstraint=eastwest;strokeWidth=1;spacingTop=0;fontSize=12;" vertex="1" parent="Jc25OmqgVMnvs9-wTiUW-46">
          <mxGeometry y="97" width="137" height="83" as="geometry" />
        </mxCell>
        <mxCell id="coV18CZ96dicYKJdgp45-20" value="Gynacology" style="swimlane;fontStyle=1;align=center;verticalAlign=top;childLayout=stackLayout;horizontal=1;startSize=26;horizontalStack=0;resizeParent=1;resizeParentMax=0;resizeLast=0;collapsible=1;marginBottom=0;strokeWidth=1;spacingTop=0;fontSize=12;strokeColor=#6c8ebf;fillColor=#dae8fc;" parent="WIyWlLk6GJQsqaUBKTNV-1" vertex="1">
          <mxGeometry x="650" y="640" width="133.67" height="114" as="geometry" />
        </mxCell>
        <mxCell id="coV18CZ96dicYKJdgp45-21" value="" style="line;strokeWidth=1;fillColor=none;align=left;verticalAlign=middle;spacingTop=0;spacingLeft=3;spacingRight=3;rotatable=0;labelPosition=right;points=[];portConstraint=eastwest;fontSize=12;strokeColor=#6C8EBF;" parent="coV18CZ96dicYKJdgp45-20" vertex="1">
          <mxGeometry y="26" width="133.67" height="8" as="geometry" />
        </mxCell>
        <mxCell id="coV18CZ96dicYKJdgp45-22" value="+ sendResult() : void&#xa;+ updateData() : void&#xa;+ view() : void&#xa;+ search() : void" style="text;strokeColor=#6C8EBF;fillColor=none;align=left;verticalAlign=top;spacingLeft=4;spacingRight=4;overflow=hidden;rotatable=0;points=[[0,0.5],[1,0.5]];portConstraint=eastwest;strokeWidth=1;spacingTop=0;fontSize=12;" parent="coV18CZ96dicYKJdgp45-20" vertex="1">
          <mxGeometry y="34" width="133.67" height="80" as="geometry" />
        </mxCell>
        <mxCell id="coV18CZ96dicYKJdgp45-24" value="LabTechnician" style="swimlane;fontStyle=1;align=center;verticalAlign=top;childLayout=stackLayout;horizontal=1;startSize=26;horizontalStack=0;resizeParent=1;resizeParentMax=0;resizeLast=0;collapsible=1;marginBottom=0;strokeWidth=1;spacingTop=0;fontSize=12;strokeColor=#6c8ebf;fillColor=#dae8fc;" parent="WIyWlLk6GJQsqaUBKTNV-1" vertex="1">
          <mxGeometry x="200" y="640" width="122.67" height="114" as="geometry" />
        </mxCell>
        <mxCell id="coV18CZ96dicYKJdgp45-25" value="" style="line;strokeWidth=1;fillColor=none;align=left;verticalAlign=middle;spacingTop=0;spacingLeft=3;spacingRight=3;rotatable=0;labelPosition=right;points=[];portConstraint=eastwest;fontSize=12;strokeColor=#6C8EBF;" parent="coV18CZ96dicYKJdgp45-24" vertex="1">
          <mxGeometry y="26" width="122.67" height="8" as="geometry" />
        </mxCell>
        <mxCell id="coV18CZ96dicYKJdgp45-26" value="+ sendResult() : void&#xa;+ updateData() : void&#xa;+ view() : void&#xa;+ search() : void" style="text;strokeColor=#6C8EBF;fillColor=none;align=left;verticalAlign=top;spacingLeft=4;spacingRight=4;overflow=hidden;rotatable=0;points=[[0,0.5],[1,0.5]];portConstraint=eastwest;strokeWidth=1;spacingTop=0;fontSize=12;" parent="coV18CZ96dicYKJdgp45-24" vertex="1">
          <mxGeometry y="34" width="122.67" height="80" as="geometry" />
        </mxCell>
        <mxCell id="coV18CZ96dicYKJdgp45-35" value="Phrmacist" style="swimlane;fontStyle=1;align=center;verticalAlign=top;childLayout=stackLayout;horizontal=1;startSize=26;horizontalStack=0;resizeParent=1;resizeParentMax=0;resizeLast=0;collapsible=1;marginBottom=0;strokeWidth=1;spacingTop=0;fontSize=12;strokeColor=#6c8ebf;fillColor=#dae8fc;" parent="WIyWlLk6GJQsqaUBKTNV-1" vertex="1">
          <mxGeometry x="340.00351481683134" y="640" width="133.66648518316876" height="114" as="geometry" />
        </mxCell>
        <mxCell id="coV18CZ96dicYKJdgp45-36" value="" style="line;strokeWidth=1;fillColor=none;align=left;verticalAlign=middle;spacingTop=0;spacingLeft=3;spacingRight=3;rotatable=0;labelPosition=right;points=[];portConstraint=eastwest;fontSize=12;strokeColor=#6C8EBF;" parent="coV18CZ96dicYKJdgp45-35" vertex="1">
          <mxGeometry y="26" width="133.66648518316876" height="8" as="geometry" />
        </mxCell>
        <mxCell id="coV18CZ96dicYKJdgp45-37" value="+ updateData() : void&#xa;+ view() : void&#xa;+ search() : void&#xa;" style="text;strokeColor=#6C8EBF;fillColor=none;align=left;verticalAlign=top;spacingLeft=4;spacingRight=4;overflow=hidden;rotatable=0;points=[[0,0.5],[1,0.5]];portConstraint=eastwest;strokeWidth=1;spacingTop=0;fontSize=12;" parent="coV18CZ96dicYKJdgp45-35" vertex="1">
          <mxGeometry y="34" width="133.66648518316876" height="80" as="geometry" />
        </mxCell>
        <mxCell id="coV18CZ96dicYKJdgp45-39" value="HMISOfficer" style="swimlane;fontStyle=1;align=center;verticalAlign=top;childLayout=stackLayout;horizontal=1;startSize=26;horizontalStack=0;resizeParent=1;resizeParentMax=0;resizeLast=0;collapsible=1;marginBottom=0;strokeWidth=1;spacingTop=0;fontSize=12;strokeColor=#6c8ebf;fillColor=#dae8fc;" parent="WIyWlLk6GJQsqaUBKTNV-1" vertex="1">
          <mxGeometry x="491.33000000000004" y="639" width="133.67" height="90" as="geometry" />
        </mxCell>
        <mxCell id="coV18CZ96dicYKJdgp45-40" value="" style="line;strokeWidth=1;fillColor=none;align=left;verticalAlign=middle;spacingTop=0;spacingLeft=3;spacingRight=3;rotatable=0;labelPosition=right;points=[];portConstraint=eastwest;fontSize=12;strokeColor=#6C8EBF;" parent="coV18CZ96dicYKJdgp45-39" vertex="1">
          <mxGeometry y="26" width="133.67" height="8" as="geometry" />
        </mxCell>
        <mxCell id="coV18CZ96dicYKJdgp45-41" value="+ addReport() : void&#xa;+ sendFeedback() : void" style="text;strokeColor=#6C8EBF;fillColor=none;align=left;verticalAlign=top;spacingLeft=4;spacingRight=4;overflow=hidden;rotatable=0;points=[[0,0.5],[1,0.5]];portConstraint=eastwest;strokeWidth=1;spacingTop=0;fontSize=12;" parent="coV18CZ96dicYKJdgp45-39" vertex="1">
          <mxGeometry y="34" width="133.67" height="56" as="geometry" />
        </mxCell>
        <mxCell id="coV18CZ96dicYKJdgp45-43" value="DataClerk" style="swimlane;fontStyle=1;align=center;verticalAlign=top;childLayout=stackLayout;horizontal=1;startSize=26;horizontalStack=0;resizeParent=1;resizeParentMax=0;resizeLast=0;collapsible=1;marginBottom=0;strokeWidth=1;spacingTop=0;fontSize=12;strokeColor=#6c8ebf;fillColor=#dae8fc;" parent="WIyWlLk6GJQsqaUBKTNV-1" vertex="1">
          <mxGeometry x="530" y="840" width="133.67" height="114" as="geometry" />
        </mxCell>
        <mxCell id="coV18CZ96dicYKJdgp45-44" value="" style="line;strokeWidth=1;fillColor=none;align=left;verticalAlign=middle;spacingTop=0;spacingLeft=3;spacingRight=3;rotatable=0;labelPosition=right;points=[];portConstraint=eastwest;fontSize=12;strokeColor=#6C8EBF;" parent="coV18CZ96dicYKJdgp45-43" vertex="1">
          <mxGeometry y="26" width="133.67" height="8" as="geometry" />
        </mxCell>
        <mxCell id="coV18CZ96dicYKJdgp45-45" value="+ generateReport() : void&#xa;+ sendReport() : void&#xa;+ updateReport() : void&#xa;+ view() : void&#xa;+ search() : void&#xa;" style="text;strokeColor=#6C8EBF;fillColor=none;align=left;verticalAlign=top;spacingLeft=4;spacingRight=4;overflow=hidden;rotatable=0;points=[[0,0.5],[1,0.5]];portConstraint=eastwest;strokeWidth=1;spacingTop=0;fontSize=12;" parent="coV18CZ96dicYKJdgp45-43" vertex="1">
          <mxGeometry y="34" width="133.67" height="80" as="geometry" />
        </mxCell>
        <mxCell id="Jc25OmqgVMnvs9-wTiUW-40" style="edgeStyle=none;rounded=0;orthogonalLoop=1;jettySize=auto;html=1;fontSize=11;startArrow=none;startFill=0;endArrow=block;endFill=0;strokeWidth=1;fillColor=#dae8fc;strokeColor=#6c8ebf;exitX=0.75;exitY=0;exitDx=0;exitDy=0;" edge="1" parent="WIyWlLk6GJQsqaUBKTNV-1">
          <mxGeometry relative="1" as="geometry">
            <mxPoint x="572" y="600" as="targetPoint" />
            <mxPoint x="571.5825" y="639" as="sourcePoint" />
          </mxGeometry>
        </mxCell>
        <mxCell id="Jc25OmqgVMnvs9-wTiUW-49" value="Receptionist" style="swimlane;fontStyle=1;align=center;verticalAlign=top;childLayout=stackLayout;horizontal=1;startSize=26;horizontalStack=0;resizeParent=1;resizeParentMax=0;resizeLast=0;collapsible=1;marginBottom=0;strokeWidth=1;spacingTop=0;fontSize=12;strokeColor=#6c8ebf;fillColor=#dae8fc;" vertex="1" parent="WIyWlLk6GJQsqaUBKTNV-1">
          <mxGeometry x="42" y="640" width="133.78" height="90" as="geometry" />
        </mxCell>
        <mxCell id="Jc25OmqgVMnvs9-wTiUW-50" value="" style="text;strokeColor=#6C8EBF;fillColor=none;align=left;verticalAlign=top;spacingLeft=4;spacingRight=4;overflow=hidden;rotatable=0;points=[[0,0.5],[1,0.5]];portConstraint=eastwest;strokeWidth=1;spacingTop=0;fontSize=12;" vertex="1" parent="Jc25OmqgVMnvs9-wTiUW-49">
          <mxGeometry y="26" width="133.78" height="4" as="geometry" />
        </mxCell>
        <mxCell id="Jc25OmqgVMnvs9-wTiUW-51" value="+ addClient(): void&#xa;+ getter() : String&#xa;+ setter() : void" style="text;strokeColor=#6C8EBF;fillColor=none;align=left;verticalAlign=top;spacingLeft=4;spacingRight=4;overflow=hidden;rotatable=0;points=[[0,0.5],[1,0.5]];portConstraint=eastwest;strokeWidth=1;spacingTop=0;fontSize=12;" vertex="1" parent="Jc25OmqgVMnvs9-wTiUW-49">
          <mxGeometry y="30" width="133.78" height="60" as="geometry" />
        </mxCell>
        <mxCell id="Jc25OmqgVMnvs9-wTiUW-55" value="" style="endArrow=none;html=1;rounded=0;strokeWidth=1;entryX=-0.03;entryY=0.026;entryDx=0;entryDy=0;exitX=1.024;exitY=0.91;exitDx=0;exitDy=0;entryPerimeter=0;fillColor=#dae8fc;strokeColor=#6c8ebf;exitPerimeter=0;" edge="1" parent="WIyWlLk6GJQsqaUBKTNV-1" source="coV18CZ96dicYKJdgp45-51" target="coV18CZ96dicYKJdgp45-12">
          <mxGeometry width="50" height="50" relative="1" as="geometry">
            <mxPoint x="355" y="271" as="sourcePoint" />
            <mxPoint x="193" y="171.93999999999994" as="targetPoint" />
          </mxGeometry>
        </mxCell>
        <mxCell id="Jc25OmqgVMnvs9-wTiUW-56" value="has" style="edgeLabel;html=1;align=center;verticalAlign=middle;resizable=0;points=[];" vertex="1" connectable="0" parent="Jc25OmqgVMnvs9-wTiUW-55">
          <mxGeometry x="0.4265" y="-2" relative="1" as="geometry">
            <mxPoint x="-10" y="-11" as="offset" />
          </mxGeometry>
        </mxCell>
        <mxCell id="Jc25OmqgVMnvs9-wTiUW-57" value="&lt;b&gt;1&lt;/b&gt;" style="edgeLabel;html=1;align=center;verticalAlign=middle;resizable=0;points=[];fontSize=11;" vertex="1" connectable="0" parent="Jc25OmqgVMnvs9-wTiUW-55">
          <mxGeometry x="-0.7448" y="-6" relative="1" as="geometry">
            <mxPoint x="38" y="2" as="offset" />
          </mxGeometry>
        </mxCell>
        <mxCell id="Jc25OmqgVMnvs9-wTiUW-58" value="&lt;b&gt;1..*&lt;/b&gt;" style="edgeLabel;html=1;align=center;verticalAlign=middle;resizable=0;points=[];fontSize=11;" vertex="1" connectable="0" parent="Jc25OmqgVMnvs9-wTiUW-55">
          <mxGeometry x="0.857" y="-8" relative="1" as="geometry">
            <mxPoint x="-38" y="-1" as="offset" />
          </mxGeometry>
        </mxCell>
        <mxCell id="Jc25OmqgVMnvs9-wTiUW-60" value="" style="endArrow=none;html=1;rounded=0;fontSize=11;strokeWidth=1;fillColor=#dae8fc;strokeColor=#6c8ebf;" edge="1" parent="WIyWlLk6GJQsqaUBKTNV-1">
          <mxGeometry width="50" height="50" relative="1" as="geometry">
            <mxPoint x="730" y="600" as="sourcePoint" />
            <mxPoint x="250" y="600" as="targetPoint" />
          </mxGeometry>
        </mxCell>
        <mxCell id="Jc25OmqgVMnvs9-wTiUW-61" style="edgeStyle=none;rounded=0;orthogonalLoop=1;jettySize=auto;html=1;fontSize=11;startArrow=none;startFill=0;endArrow=block;endFill=0;strokeWidth=1;fillColor=#dae8fc;strokeColor=#6c8ebf;exitX=0.75;exitY=0;exitDx=0;exitDy=0;" edge="1" parent="WIyWlLk6GJQsqaUBKTNV-1">
          <mxGeometry relative="1" as="geometry">
            <mxPoint x="411.9999999999998" y="600" as="targetPoint" />
            <mxPoint x="411.5825" y="639" as="sourcePoint" />
          </mxGeometry>
        </mxCell>
        <mxCell id="Jc25OmqgVMnvs9-wTiUW-62" style="edgeStyle=none;rounded=0;orthogonalLoop=1;jettySize=auto;html=1;fontSize=11;startArrow=none;startFill=0;endArrow=block;endFill=0;strokeWidth=1;fillColor=#dae8fc;strokeColor=#6c8ebf;exitX=0.75;exitY=0;exitDx=0;exitDy=0;" edge="1" parent="WIyWlLk6GJQsqaUBKTNV-1">
          <mxGeometry relative="1" as="geometry">
            <mxPoint x="250.99999999999977" y="600" as="targetPoint" />
            <mxPoint x="250.58249999999998" y="639" as="sourcePoint" />
          </mxGeometry>
        </mxCell>
        <mxCell id="Jc25OmqgVMnvs9-wTiUW-63" style="edgeStyle=none;rounded=0;orthogonalLoop=1;jettySize=auto;html=1;fontSize=11;startArrow=none;startFill=0;endArrow=block;endFill=0;strokeWidth=1;fillColor=#dae8fc;strokeColor=#6c8ebf;exitX=0.75;exitY=0;exitDx=0;exitDy=0;" edge="1" parent="WIyWlLk6GJQsqaUBKTNV-1">
          <mxGeometry relative="1" as="geometry">
            <mxPoint x="701.9999999999998" y="600" as="targetPoint" />
            <mxPoint x="701.5825" y="639" as="sourcePoint" />
          </mxGeometry>
        </mxCell>
      </root>
    </mxGraphModel>
  </diagram>
</mxfile>
